# Blender 4.0.1
# www.blender.org
o Mesh_0.009
v 10.417768 3.324243 -5.163448
v 7.201371 3.324243 -5.163448
v 7.201371 3.324243 -2.414106
v 10.417768 3.324243 -2.414106
v 10.417768 3.324243 1.844139
v -8.241399 3.324243 -2.414106
v -8.241399 3.324243 -5.163448
v 7.201371 3.324243 1.844139
v -11.457795 3.324243 -5.163448
v -11.457795 3.324243 -2.414106
v 10.417768 3.324243 4.593482
v 7.201371 3.324243 4.593482
v -8.241399 3.324243 4.593482
v -8.241399 3.324243 1.844139
v -11.457795 3.324243 1.844139
v -11.457795 3.324243 4.593482
v 1.036918 -0.020050 4.592236
v 10.417525 -0.020050 4.592238
v 10.417525 -0.020050 -5.146894
v -2.034854 -0.020050 4.592236
v -11.428159 -0.020050 4.592235
v -0.506736 -0.020050 -5.150692
v -11.428159 -0.020050 -5.154491
vn -0.0000 1.0000 -0.0000
vt 6.718900 3.185200
vt 5.731000 3.185200
vt 5.731000 2.327400
vt 6.718900 2.327400
vt 6.718900 1.017300
vt 0.987900 2.327400
vt 0.987900 3.185200
vt 5.731000 1.017300
vt 0.000000 3.185200
vt 0.000000 2.327400
vt 6.718900 0.140900
vt 5.731000 0.140900
vt 0.987900 0.140900
vt 0.987900 1.017300
vt 0.000000 1.017300
vt 0.000000 0.140900
vt 2.621700 5.952500
vt -1.890500 5.952500
vt -1.890500 1.267900
vt 4.099200 5.952500
vt 8.617500 5.952500
vt 3.364200 1.266100
vt 8.617500 1.264200
s 0
f 1/1/1 2/2/1 3/3/1
f 1/1/1 3/3/1 4/4/1
f 3/3/1 5/5/1 4/4/1
f 2/2/1 6/6/1 3/3/1
f 2/2/1 7/7/1 6/6/1
f 3/3/1 8/8/1 5/5/1
f 6/6/1 7/7/1 9/9/1
f 6/6/1 9/9/1 10/10/1
f 8/8/1 11/11/1 5/5/1
f 8/8/1 12/12/1 11/11/1
f 13/13/1 12/12/1 8/8/1
f 14/14/1 6/6/1 10/10/1
f 13/13/1 8/8/1 14/14/1
f 14/14/1 10/10/1 15/15/1
f 16/16/1 13/13/1 14/14/1
f 16/16/1 14/14/1 15/15/1
f 17/17/1 18/18/1 19/19/1
f 17/17/1 19/19/1 20/20/1
f 21/21/1 20/20/1 19/19/1
f 21/21/1 19/19/1 22/22/1
f 23/23/1 21/21/1 22/22/1
